<?xml version="1.0" encoding="iso-8859-1"?>
<!-- Generator: Adobe Illustrator 19.0.0, SVG Export Plug-In . SVG Version: 6.00 Build 0)  -->
<svg version="1.1" id="Layer_1" xmlns="http://www.w3.org/2000/svg" xmlns:xlink="http://www.w3.org/1999/xlink" x="0px" y="0px"
	 viewBox="0 0 512 512" style="enable-background:new 0 0 512 512;" xml:space="preserve">
<path style="fill:#31C0D8;" d="M118.771,372.122c0,0,110.84,131.947,0,131.947S118.771,372.122,118.771,372.122z"/>
<g>
	<polygon style="fill:#AFB6BB;" points="361.559,7.931 361.559,39.601 308.782,39.601 287.665,39.601 287.665,7.931 	"/>
	<polygon style="fill:#AFB6BB;" points="287.665,7.931 287.665,39.601 266.559,39.601 213.771,39.601 213.771,7.931 	"/>
	<polygon style="fill:#AFB6BB;" points="335.165,92.378 335.165,134.601 240.165,134.601 240.165,92.378 266.559,92.378 
		308.782,92.378 	"/>
</g>
<rect x="229.612" y="187.388" style="fill:#E7ECED;" width="116.117" height="73.894"/>
<g>
	<polygon style="fill:#757B7F;" points="176.824,298.229 176.824,340.452 50.154,340.452 50.154,298.229 81.824,298.229 
		150.441,298.229 	"/>
	<polygon style="fill:#757B7F;" points="308.782,39.601 308.782,92.378 266.559,92.378 266.559,39.601 287.665,39.601 	"/>
	<polygon style="fill:#757B7F;" points="382.676,245.441 382.676,261.282 345.729,261.282 345.729,187.388 229.612,187.388 
		229.612,261.282 192.665,261.282 192.665,245.441 192.665,150.441 192.665,134.601 240.165,134.601 335.165,134.601 
		382.676,134.601 382.676,150.441 	"/>
</g>
<g>
	<rect x="382.676" y="150.441" style="fill:#AFB6BB;" width="79.17" height="95"/>
	<path style="fill:#AFB6BB;" d="M192.665,150.441v95h-42.223v52.787H81.824c0,0,0-21.117,0-95.011v-52.777L192.665,150.441
		L192.665,150.441z"/>
</g>
<path d="M124.843,367.021l-6.072-7.229l-6.073,7.229c-0.665,0.793-16.458,19.676-30.362,43.467
	c-19.603,33.542-25.35,59.547-17.08,77.293C72.744,503.851,90.749,512,118.771,512s46.027-8.149,53.516-24.218
	c8.269-17.746,2.522-43.751-17.081-77.293C141.302,386.697,125.509,367.813,124.843,367.021z M157.909,481.082
	c-4.655,9.991-17.823,15.057-39.139,15.057c-21.312,0-34.479-5.064-39.137-15.052c-5.763-12.361,0.022-34.53,16.293-62.419
	c8.112-13.905,17.099-26.282,22.867-33.812C136.98,408.575,168.786,457.741,157.909,481.082z"/>
<path d="M109.951,428.357C108.421,429.121,95,436.555,95,461.845h15.862c0-15.265,6.207-19.293,6.472-19.457
	c-0.186,0.115-0.294,0.158-0.294,0.158L109.951,428.357z"/>
<path d="M469.777,142.511h-79.17v-15.84h-47.511V84.447h-26.383V47.532h52.777V0H205.841v47.532h52.787v36.915h-26.394v42.223
	h-47.501v15.84H73.894v147.787h-31.67v58.085h142.532v-58.085h-26.383v-36.926h26.362v15.84h205.872v-15.84h79.17V142.511z
	 M295.596,15.862h58.032V31.67h-58.032V15.862z M221.702,15.862h58.032V31.67h-58.032V15.862z M300.851,47.532v36.915h-26.362
	V47.532H300.851z M248.096,100.308h79.139v26.362h-79.139V100.308z M168.894,332.521H58.085v-26.362h110.809V332.521z
	 M142.511,237.511v52.787H89.755V158.372h94.978v79.139H142.511z M200.595,142.532h174.149v102.91v7.91h-21.085v-73.894H221.681
	v73.894h-21.085V142.532H200.595z M337.797,253.351H237.541v-58.032h100.256V253.351z M453.915,237.511h-63.309v-79.139h63.309
	V237.511z"/>
<rect x="250.718" y="216.404" width="36.947" height="15.862"/>
<rect x="303.505" y="216.404" width="21.106" height="15.862"/>
<g>
</g>
<g>
</g>
<g>
</g>
<g>
</g>
<g>
</g>
<g>
</g>
<g>
</g>
<g>
</g>
<g>
</g>
<g>
</g>
<g>
</g>
<g>
</g>
<g>
</g>
<g>
</g>
<g>
</g>
</svg>
