<?xml version="1.0" encoding="iso-8859-1"?>
<!-- Generator: Adobe Illustrator 19.0.0, SVG Export Plug-In . SVG Version: 6.00 Build 0)  -->
<svg version="1.1" id="Layer_1" xmlns="http://www.w3.org/2000/svg" xmlns:xlink="http://www.w3.org/1999/xlink" x="0px" y="0px"
	 viewBox="0 0 512.001 512.001" style="enable-background:new 0 0 512.001 512.001;" xml:space="preserve">
<g>
	<polygon style="fill:#174F79;" points="358.927,369.237 358.927,504.486 394.698,504.486 394.698,367.939 	"/>
	<rect x="394.698" y="366.655" style="fill:#174F79;" width="35.771" height="137.838"/>
</g>
<g>
	<rect x="358.931" y="109.114" style="fill:#73AFD6;" width="74.75" height="60.353"/>
	<polygon style="fill:#73AFD6;" points="450.18,336.026 460.199,376.858 329.198,376.858 339.217,336.026 339.217,208.736 
		449.812,208.736 	"/>
</g>
<g>
	<path style="fill:#D3EFFD;" d="M430.469,216.979v116.65h35.771V203.298c0-18.685-15.147-33.832-33.832-33.832h-37.711h-37.711
		c-18.685,0-33.832,15.147-33.832,33.832v130.331h35.771v-116.65H430.469z"/>
	<path style="fill:#D3EFFD;" d="M396.157,149.396L396.157,149.396c-20.635,0-37.518-16.884-37.518-37.518V91.402
		c0-20.635,16.884-37.518,37.518-37.518l0,0c20.635,0,37.518,16.884,37.518,37.518v20.476
		C433.675,132.513,416.792,149.396,396.157,149.396z"/>
</g>
<path style="fill:#73AFD6;" d="M433.675,91.402c0-20.635-16.884-37.518-37.518-37.518l0,0c-12.91,0-24.35,6.608-31.108,16.61
	L433.675,91.402L433.675,91.402z"/>
<rect x="244.508" y="7.514" style="fill:#D3EFFD;" width="29.054" height="493.442"/>
<path style="fill:#73AFD6;" d="M156.28,75.29c0-11.773-9.633-21.406-21.406-21.406h-32.224c-9.53,0-17.652,6.313-20.404,14.962
	l74.034,22.556V75.29z"/>
<path style="fill:#D3EFFD;" d="M82.245,68.846c-0.648,2.036-1.002,4.2-1.002,6.444v42.853c0,17.189,14.063,31.252,31.252,31.252
	h12.531c17.189,0,31.252-14.063,31.252-31.252V91.402L82.245,68.846z"/>
<g>
	<polygon style="fill:#174F79;" points="81.532,254.235 81.532,504.486 117.282,504.486 117.282,289.986 	"/>
	<polygon style="fill:#174F79;" points="153.033,352.02 153.033,504.486 117.282,504.486 117.282,351.471 	"/>
</g>
<path style="fill:#73AFD6;" d="M81.532,169.428l0.008,180.091l35.771-0.366c0,0,35.771,4.15,35.771-15.525V169.435H81.54"/>
<path style="fill:#D3EFFD;" d="M81.532,169.428l35.771,18.786l35.771-18.78v119.62v-83.332v11.223v116.65h35.771v-130.33
	c0-18.685-15.147-33.832-33.832-33.832h-37.71h-37.71c-18.685,0-33.832,15.147-33.832,33.832v130.331H81.53v-116.65v-11.223v83.332
	v30.29L81.532,169.428z"/>
<path d="M441.189,162.899v-51.021v-2.761V91.406c0-0.054-0.003-0.108-0.004-0.162c-0.086-24.757-20.251-44.874-45.028-44.874
	c-24.83,0-45.032,20.202-45.032,45.032v20.476c0,1.702,0.104,3.38,0.289,5.034v45.426c-20.17,2.732-35.771,20.052-35.771,40.96
	v130.331c0,4.151,3.363,7.514,7.514,7.514h7.069l-8.325,33.924c-0.55,2.241-0.039,4.612,1.386,6.428s3.605,2.876,5.912,2.876h22.215
	v120.115c0,4.151,3.363,7.514,7.514,7.514h35.772h35.771c4.151,0,7.514-3.363,7.514-7.514V384.371H460.2
	c2.308,0,4.487-1.061,5.912-2.876c1.425-1.816,1.936-4.187,1.386-6.428l-8.325-33.924h7.068c4.151,0,7.514-3.363,7.514-7.514
	V203.298C473.755,183.512,459.783,166.937,441.189,162.899z M394.698,161.952H366.44v-16.279
	c7.936,6.987,18.336,11.239,29.716,11.239c11.517,0,22.033-4.351,30.004-11.488v16.53L394.698,161.952L394.698,161.952z
	 M366.152,91.402c0-4.249,0.893-8.291,2.493-11.957l57.517,17.523v12.149v2.761c0,16.545-13.46,30.004-30.004,30.004
	c-15.149,0-27.705-11.288-29.716-25.894v-6.872c0-0.709-0.105-1.393-0.289-2.044V91.402H366.152z M424.16,80.648l-45.24-13.783
	c4.881-3.438,10.824-5.467,17.236-5.467C408.912,61.398,419.826,69.402,424.16,80.648z M366.44,384.371h20.744v30.655v81.945H366.44
	V384.371z M422.956,496.972h-20.744v-81.945v-30.655h20.743v112.6H422.956z M450.619,369.343h-111.84l6.92-28.201h13.228
	c4.151,0,7.514-3.363,7.514-7.514v-44.541v-72.109v-11.742c0-4.151-3.363-7.514-7.514-7.514s-7.514,3.363-7.514,7.514v11.742v72.109
	v37.027H330.67V203.298c0-14.511,11.806-26.318,26.318-26.318h37.711h37.711c14.511,0,26.318,11.806,26.318,26.318v122.817h-20.743
	v-37.027v-72.109v-11.742c0-4.151-3.363-7.514-7.514-7.514s-7.514,3.363-7.514,7.514v11.742v72.109v44.541
	c0,4.151,3.363,7.514,7.514,7.514H443.7L450.619,369.343z"/>
<path d="M276.152,0h-33.465c-4.151,0-7.514,3.363-7.514,7.514v493.443c0,4.151,3.363,7.514,7.514,7.514h33.465
	c4.151,0,7.514-3.363,7.514-7.514V7.514C283.666,3.363,280.302,0,276.152,0z M268.638,493.443h-18.436V15.028h18.436V493.443z"/>
<path d="M112.496,156.91h12.531c21.376,0,38.766-17.391,38.766-38.766V91.406c0-0.03,0-0.06,0-0.09V75.29
	c0-15.947-12.973-28.92-28.92-28.92h-32.224c-15.947,0-28.92,12.973-28.92,28.92v42.853C73.728,139.52,91.12,156.91,112.496,156.91z
	 M125.026,141.882h-12.531c-13.089,0-23.738-10.649-23.738-23.738V78.686l60.008,18.283v21.176
	C148.766,131.233,138.117,141.882,125.026,141.882z M134.874,61.398c7.66,0,13.892,6.233,13.892,13.892v5.967L93.872,64.534
	c2.394-1.958,5.45-3.136,8.776-3.136H134.874z"/>
<path d="M155.013,161.952h-37.71h-37.71c-22.799,0-41.346,18.548-41.346,41.346v130.331c0,4.151,3.363,7.514,7.514,7.514h28.257
	v9.622v153.722c0,4.151,3.363,7.514,7.514,7.514h35.772h35.771c4.151,0,7.514-3.363,7.514-7.514V350.764v-9.622h28.257
	c4.151,0,7.514-3.363,7.514-7.514v-130.33C196.36,180.499,177.812,161.952,155.013,161.952z M89.045,358.278h20.744v138.694H89.045
	V358.278z M124.817,496.972V358.278h20.743v138.694H124.817z M181.331,326.115h-20.743v-6.739v-30.289v-72.109v-11.742
	c0-4.151-3.363-7.514-7.514-7.514c-4.151,0-7.514,3.363-7.514,7.514v11.742v72.109v30.289v14.253v9.622H89.045v-9.622v-14.253
	v-30.289v-72.109v-11.742c0-4.151-3.363-7.514-7.514-7.514s-7.514,3.363-7.514,7.514v11.742v72.109v30.289v6.739H53.274V203.298
	c0-14.511,11.806-26.318,26.318-26.318h37.711h37.71c14.511,0,26.318,11.806,26.318,26.318L181.331,326.115L181.331,326.115z"/>
<g>
</g>
<g>
</g>
<g>
</g>
<g>
</g>
<g>
</g>
<g>
</g>
<g>
</g>
<g>
</g>
<g>
</g>
<g>
</g>
<g>
</g>
<g>
</g>
<g>
</g>
<g>
</g>
<g>
</g>
</svg>
