<?xml version="1.0" encoding="iso-8859-1"?>
<!-- Generator: Adobe Illustrator 19.0.0, SVG Export Plug-In . SVG Version: 6.00 Build 0)  -->
<svg version="1.1" id="Layer_1" xmlns="http://www.w3.org/2000/svg" xmlns:xlink="http://www.w3.org/1999/xlink" x="0px" y="0px"
	 viewBox="0 0 512 512" style="enable-background:new 0 0 512 512;" xml:space="preserve">
<circle style="fill:#FFE356;" cx="256" cy="256" r="256"/>
<path style="fill:#75BD80;" d="M138.333,333.29h240.231c12.424,0,22.458,10.154,22.458,22.458v61.999
	c0,12.424-10.154,22.458-22.458,22.458H138.333c-12.424,0-22.458-10.154-22.458-22.458v-61.999
	C115.875,343.324,126.029,333.29,138.333,333.29z"/>
<path style="fill:#83CF8F;" d="M138.333,325.764h240.231c12.424,0,22.458,10.154,22.458,22.458v61.999
	c0,12.424-10.154,22.458-22.458,22.458H138.333c-12.424,0-22.458-10.154-22.458-22.458v-61.999
	C115.875,335.798,126.029,325.764,138.333,325.764z"/>
<g>
	<path style="fill:#E4E7ED;" d="M223.985,245.129c-2.031,2.986-6.092,3.703-8.959,1.672c-2.986-2.031-3.703-6.092-1.672-8.959
		c4.659-6.929,11.11-12.663,18.516-16.605c7.168-3.823,15.41-5.973,24.011-5.973c8.601,0,16.844,2.15,24.011,5.973
		c7.406,3.942,13.857,9.676,18.516,16.605c2.031,2.986,1.314,6.929-1.672,8.959c-2.986,2.031-6.929,1.314-8.959-1.672
		c-3.584-5.137-8.362-9.437-13.857-12.424c-5.376-2.867-11.468-4.42-18.038-4.42c-6.57,0-12.663,1.553-18.038,4.42
		C232.228,235.692,227.449,239.873,223.985,245.129z M104.168,163.42c-2.031,2.986-6.092,3.703-8.959,1.672
		c-2.986-2.031-3.703-6.092-1.672-8.959c18.038-26.4,42.288-48.142,70.72-63.194c27.356-14.455,58.535-22.697,91.625-22.697
		s64.269,8.243,91.625,22.697c28.431,15.052,52.681,36.793,70.72,63.194c2.031,2.986,1.314,6.929-1.672,8.959
		c-2.986,2.031-6.929,1.314-8.959-1.672c-16.844-24.608-39.541-45.036-66.061-59.013c-25.564-13.499-54.712-21.144-85.652-21.144
		s-60.088,7.645-85.652,21.144C143.709,118.384,121.012,138.811,104.168,163.42z M143.948,190.537
		c-2.031,2.986-6.092,3.703-8.959,1.672c-2.986-2.031-3.703-6.092-1.672-8.959c13.618-19.95,31.895-36.315,53.398-47.664
		c20.666-10.871,44.2-17.083,69.167-17.083s48.5,6.212,69.167,17.083c21.503,11.349,39.78,27.714,53.398,47.664
		c2.031,2.986,1.314,6.929-1.672,8.959c-2.986,2.031-6.929,1.314-8.959-1.672c-12.424-18.158-29.148-33.21-48.739-43.483
		c-18.874-9.915-40.377-15.649-63.194-15.649c-22.817,0-44.319,5.615-63.194,15.649
		C173.096,157.447,156.371,172.379,143.948,190.537z M178.591,214.189c-2.031,2.986-6.092,3.703-8.959,1.672
		c-2.986-2.031-3.703-6.092-1.672-8.959c9.796-14.335,22.936-26.042,38.346-34.165c14.813-7.884,31.776-12.304,49.695-12.304
		s34.762,4.42,49.695,12.304c15.41,8.123,28.551,19.95,38.346,34.165c2.031,2.986,1.314,6.929-1.672,8.959
		c-2.986,2.031-6.929,1.314-8.959-1.672c-8.601-12.543-20.189-22.936-33.687-30.104c-13.021-6.929-27.834-10.751-43.602-10.751
		c-15.769,0-30.581,3.942-43.602,10.751c-13.499,7.168-25.086,17.441-33.687,30.104H178.591z"/>
	<path style="fill:#FEFEFE;" d="M224.343,243.337c-2.031,2.986-6.092,3.703-8.959,1.672c-2.986-2.031-3.703-6.092-1.672-8.959
		c4.778-6.929,11.11-12.663,18.516-16.605c7.168-3.823,15.41-5.973,24.011-5.973c8.601,0,16.844,2.15,24.011,5.973
		c7.406,3.942,13.857,9.676,18.516,16.605c2.031,2.986,1.314,6.929-1.672,8.959c-2.986,2.031-6.929,1.314-8.959-1.672
		c-3.584-5.137-8.243-9.437-13.857-12.424c-5.376-2.867-11.468-4.42-18.038-4.42s-12.663,1.553-18.038,4.42
		C232.586,233.9,227.808,238.081,224.343,243.337z M104.526,161.628c-2.031,2.986-6.092,3.703-8.959,1.672
		c-2.986-2.031-3.703-6.092-1.672-8.959c18.038-26.4,42.288-48.142,70.72-63.194c27.356-14.455,58.535-22.697,91.625-22.697
		s64.269,8.243,91.625,22.697c28.431,15.052,52.681,36.793,70.72,63.194c2.031,2.986,1.314,6.929-1.672,8.959
		c-2.986,2.031-6.929,1.314-8.959-1.672c-16.844-24.608-39.541-45.036-66.061-59.013c-25.564-13.499-54.712-21.144-85.652-21.144
		s-60.088,7.645-85.652,21.144C144.067,116.592,121.37,137.019,104.526,161.628z M144.306,188.745
		c-2.031,2.986-6.092,3.703-8.959,1.672c-2.986-2.031-3.703-6.092-1.672-8.959c13.618-19.95,31.895-36.315,53.398-47.664
		c20.666-10.871,44.2-17.083,69.167-17.083s48.5,6.212,69.167,17.083c21.503,11.349,39.78,27.714,53.398,47.664
		c2.031,2.986,1.314,6.929-1.672,8.959s-6.929,1.314-8.959-1.672c-12.424-18.158-29.148-33.21-48.739-43.483
		c-18.874-9.915-40.377-15.649-63.194-15.649s-44.319,5.615-63.194,15.649C173.454,155.655,156.73,170.587,144.306,188.745z
		 M178.949,212.398c-2.031,2.986-6.092,3.703-8.959,1.672c-2.986-2.031-3.703-6.092-1.672-8.959
		c9.796-14.335,22.936-26.042,38.346-34.165c14.813-7.884,31.776-12.304,49.695-12.304c17.919,0,34.762,4.42,49.695,12.304
		c15.41,8.123,28.551,19.95,38.346,34.165c2.031,2.986,1.314,6.929-1.672,8.959c-2.986,2.031-6.929,1.314-8.959-1.672
		c-8.601-12.543-20.189-22.936-33.687-30.104c-13.021-6.929-27.834-10.751-43.602-10.751s-30.581,3.942-43.602,10.751
		c-13.499,7.168-25.086,17.441-33.687,30.104H178.949z"/>
</g>
<path style="fill:#F7635B;" d="M257.434,258.867c13.738,0,24.847,11.11,24.847,24.847c0,13.738-11.11,24.847-24.847,24.847
	c-13.738,0-24.847-11.11-24.847-24.847C232.586,269.977,243.696,258.867,257.434,258.867z"/>
<path style="fill:#FF7069;" d="M257.434,258.867c7.884,0,14.932,3.703,19.472,9.437c1.195,2.986,1.911,6.212,1.911,9.557
	c0,13.738-11.11,24.847-24.847,24.847c-7.884,0-14.932-3.703-19.472-9.437c-1.195-2.986-1.911-6.212-1.911-9.557
	C232.586,269.977,243.696,258.867,257.434,258.867z"/>
<path style="fill:#FF9B96;" d="M248.355,270.813c2.15,0,3.823,1.672,3.823,3.823c0,2.15-1.672,3.823-3.823,3.823
	s-3.823-1.672-3.823-3.823C244.532,272.485,246.204,270.813,248.355,270.813z"/>
<path style="fill:#FEFEFE;" d="M219.446,410.818c-0.119,0.478-0.358,0.836-0.597,1.195c-0.239,0.239-0.597,0.478-1.075,0.717
	c-0.478,0.119-1.075,0.239-1.792,0.358c-0.717,0.119-1.553,0.119-2.628,0.119c-1.075,0-1.911,0-2.628-0.119
	c-0.717-0.119-1.314-0.119-1.792-0.358c-0.478-0.119-0.836-0.358-1.075-0.717c-0.239-0.239-0.478-0.717-0.597-1.195l-13.738-49.814
	h-0.119l-12.782,49.814c-0.119,0.478-0.239,0.836-0.478,1.195c-0.239,0.239-0.597,0.478-0.956,0.717
	c-0.478,0.119-1.075,0.239-1.672,0.358c-0.717,0.119-1.553,0.119-2.628,0.119s-2.031,0-2.867-0.119
	c-0.717-0.119-1.314-0.119-1.792-0.358c-0.478-0.119-0.836-0.358-1.075-0.717c-0.239-0.239-0.478-0.717-0.597-1.195l-17.441-60.804
	c-0.239-0.836-0.358-1.434-0.358-1.792c0-0.478,0.119-0.836,0.358-1.075s0.717-0.358,1.434-0.478
	c0.597-0.119,1.553-0.119,2.628-0.119c1.075,0,1.911,0,2.509,0.119c0.597,0,1.075,0.119,1.434,0.239
	c0.358,0.119,0.597,0.358,0.717,0.597c0.119,0.239,0.239,0.478,0.239,0.956l14.813,55.19l0,0l14.096-55.07
	c0.119-0.358,0.239-0.717,0.358-0.956c0.119-0.239,0.358-0.478,0.717-0.597c0.358-0.119,0.836-0.239,1.434-0.239
	c0.597-0.119,1.434-0.119,2.509-0.119c0.956,0,1.672,0,2.27,0.119c0.597,0.119,1.075,0.119,1.314,0.239
	c0.358,0.119,0.597,0.358,0.717,0.597c0.119,0.239,0.239,0.597,0.358,0.956l15.171,55.07h0.119l14.454-55.19
	c0.119-0.358,0.239-0.597,0.358-0.836c0.119-0.239,0.358-0.478,0.597-0.597c0.358-0.119,0.836-0.239,1.434-0.239
	c0.597-0.119,1.314-0.119,2.389-0.119c1.075,0,1.792,0,2.389,0.119c0.597,0.119,1.075,0.239,1.314,0.478s0.358,0.597,0.358,1.075
	s-0.119,1.075-0.239,1.792l-17.441,60.805L219.446,410.818z M256.597,411.535c0,0.239-0.119,0.478-0.239,0.717
	c-0.119,0.119-0.358,0.358-0.717,0.478c-0.358,0.119-0.717,0.239-1.314,0.239c-0.597,0.119-1.195,0.119-2.031,0.119
	s-1.553,0-2.031-0.119c-0.597-0.119-0.956-0.119-1.314-0.239c-0.358-0.119-0.597-0.358-0.717-0.478
	c-0.119-0.239-0.119-0.478-0.119-0.717v-45.872c0-0.239,0-0.478,0.119-0.717c0.119-0.239,0.358-0.358,0.717-0.478
	c0.358-0.119,0.717-0.239,1.314-0.239c0.597-0.119,1.195-0.119,2.031-0.119s1.553,0,2.031,0.119
	c0.597,0.119,0.956,0.119,1.314,0.239c0.358,0.119,0.478,0.358,0.717,0.478c0.119,0.239,0.239,0.358,0.239,0.717V411.535z
	 M257.553,350.253c0,2.031-0.358,3.345-1.075,4.062c-0.717,0.717-2.15,1.075-4.181,1.075c-2.031,0-3.345-0.358-4.062-1.075
	c-0.717-0.717-1.075-2.031-1.075-3.942c0-2.031,0.358-3.345,1.075-4.062c0.717-0.717,2.15-1.075,4.181-1.075
	s3.345,0.358,4.062,1.075C257.195,347.028,257.553,348.342,257.553,350.253z M292.793,387.046c0,1.314-0.119,2.27-0.478,2.748
	c-0.358,0.478-0.717,0.717-1.314,0.717h-21.264c-0.597,0-1.075-0.239-1.434-0.836c-0.239-0.597-0.478-1.434-0.478-2.748
	c0-1.314,0.119-2.15,0.478-2.748c0.358-0.478,0.717-0.717,1.434-0.717h21.264c0.239,0,0.478,0,0.717,0.119
	c0.239,0.119,0.358,0.239,0.597,0.597c0.119,0.239,0.239,0.597,0.358,1.075c0.119,0.478,0.119,0.956,0.119,1.672V387.046z
	 M339.621,350.611c0,0.597,0,1.195-0.119,1.672c-0.119,0.478-0.239,0.836-0.358,1.195c-0.119,0.239-0.358,0.478-0.597,0.597
	c-0.239,0.119-0.478,0.239-0.717,0.239h-24.131v22.458h22.817c0.239,0,0.478,0,0.717,0.119c0.239,0.119,0.358,0.358,0.597,0.597
	c0.119,0.239,0.239,0.597,0.358,1.075c0.119,0.478,0.119,1.075,0.119,1.792c0,0.717,0,1.195-0.119,1.672
	c-0.119,0.478-0.239,0.836-0.358,1.075c-0.119,0.239-0.358,0.478-0.597,0.717c-0.239,0.119-0.478,0.239-0.717,0.239h-22.817v27.476
	c0,0.239-0.119,0.478-0.239,0.717c-0.119,0.239-0.358,0.358-0.717,0.478s-0.836,0.239-1.314,0.358
	c-0.597,0.119-1.195,0.119-2.15,0.119c-0.836,0-1.553,0-2.031-0.119c-0.597-0.119-1.075-0.239-1.434-0.358
	c-0.358-0.119-0.597-0.239-0.717-0.478s-0.239-0.478-0.239-0.717v-61.043c0-1.314,0.358-2.27,1.075-2.748
	c0.717-0.478,1.434-0.836,2.27-0.836h29.626c0.239,0,0.478,0.119,0.717,0.239c0.239,0.119,0.358,0.358,0.597,0.717
	c0.119,0.239,0.239,0.717,0.358,1.195c0.119,0.478,0.119,1.075,0.119,1.672V350.611z M360.407,411.416
	c0,0.239-0.119,0.478-0.239,0.717c-0.119,0.119-0.358,0.358-0.717,0.478c-0.358,0.119-0.717,0.239-1.314,0.239
	c-0.597,0.119-1.195,0.119-2.031,0.119c-0.836,0-1.553,0-2.031-0.119c-0.597-0.119-0.956-0.119-1.314-0.239
	c-0.358-0.119-0.597-0.358-0.717-0.478c-0.119-0.239-0.119-0.478-0.119-0.717v-45.872c0-0.239,0-0.478,0.119-0.717
	c0.119-0.239,0.358-0.358,0.717-0.478c0.358-0.119,0.717-0.239,1.314-0.239c0.597-0.119,1.195-0.119,2.031-0.119
	c0.836,0,1.553,0,2.031,0.119c0.597,0.119,0.956,0.119,1.314,0.239c0.358,0.119,0.478,0.358,0.717,0.478
	c0.119,0.239,0.239,0.358,0.239,0.717V411.416z M361.363,350.133c0,2.031-0.358,3.345-1.075,4.062
	c-0.717,0.717-2.15,1.075-4.181,1.075c-2.031,0-3.345-0.358-4.062-1.075c-0.717-0.717-1.075-2.031-1.075-3.942
	c0-2.031,0.358-3.345,1.075-4.062c0.717-0.717,2.15-1.075,4.181-1.075s3.345,0.358,4.062,1.075
	C361.004,346.908,361.363,348.222,361.363,350.133z"/>
<g>
</g>
<g>
</g>
<g>
</g>
<g>
</g>
<g>
</g>
<g>
</g>
<g>
</g>
<g>
</g>
<g>
</g>
<g>
</g>
<g>
</g>
<g>
</g>
<g>
</g>
<g>
</g>
<g>
</g>
</svg>
